<?xml version="1.0" encoding="UTF-8"?>
<svg xmlns="http://www.w3.org/2000/svg" version="1.1" viewBox="0 0 850.39 850.39">
  <defs>
    <style>
      .cls-1 {
        fill: #4c5356;
      }

      .cls-2 {
        fill: #485154;
      }
    </style>
  </defs>
  <!-- Generator: Adobe Illustrator 28.7.10, SVG Export Plug-In . SVG Version: 1.2.0 Build 236)  -->
  <g>
    <g id="Layer_2">
      <g>
        <path class="cls-2" d="M167,296.8h140.21v-50.88c9.17,6.45,23.41,18.27,35.05,37.31,15.84,25.91,18.16,50.94,18.47,62.94h-142.1c-.19,9.11.18,43.44,25.63,74.63,23.74,29.08,54.35,37.12,63.7,39.2v-58.42h49v114.58c-11.07.77-79.46,4.4-134.94-48.25-58.24-55.26-55.59-128.24-55.03-138.7v-32.41Z"/>
        <path class="cls-1" d="M203,111.45v129.28h49v-75.38c19.34,5.01,63.08,19.14,101.77,59.18,45.26,46.84,55.74,100.28,58.58,119.48v172.51h48.09v-172.51c2.62-18.66,12.11-68.38,53.15-113.83,40.4-44.75,87.96-59.42,106.29-64.08v350.41h50.13V111.45c-24.49.65-76.83,5.37-131.54,38.45-61.96,37.46-91.23,89.69-101.96,111.57-9.98-21.48-35.4-68.57-89.14-105.16-60.44-41.15-120.99-44.69-144.36-44.85Z"/>
        <path class="cls-1" d="M516.97,320.64v195.88h48.62V245.92c-8.16,5.13-22.82,15.87-34.3,34.77-9.65,15.88-13.01,30.86-14.32,39.95Z"/>
      </g>
      <g>
        <path class="cls-1" d="M166.6,675.66v-104.48h14.66v104.48h-14.66ZM173.71,585.12v-13.94h60v13.94h-60ZM173.71,630.75v-13.94h52.1v13.94h-52.1ZM173.71,675.66v-13.94h60v13.94h-60Z"/>
        <path class="cls-1" d="M254.56,675.66v-104.48h14.66v104.48h-14.66ZM261.89,675.66v-13.94h59.79v13.94h-59.79Z"/>
        <path class="cls-1" d="M383.33,640.16l30.68-68.98h13.73v104.48h-14.3v-78.25l.72,4.6-25.73,59.14h-10.2l-25.73-57.7.72-6.04v78.25h-14.3v-104.48h13.73l30.68,68.98Z"/>
        <path class="cls-1" d="M488.17,676.74c-7.38,0-13.82-1.59-19.33-4.78-5.51-3.18-9.79-7.68-12.83-13.47-3.04-5.8-4.56-12.55-4.56-20.26v-29.61c0-7.76,1.52-14.53,4.56-20.3,3.04-5.77,7.32-10.25,12.83-13.44,5.51-3.18,11.95-4.78,19.33-4.78s13.82,1.59,19.33,4.78c5.51,3.19,9.78,7.67,12.83,13.44,3.04,5.77,4.56,12.54,4.56,20.3v29.61c0,7.71-1.52,14.47-4.56,20.26-3.04,5.8-7.32,10.29-12.83,13.47-5.51,3.19-11.95,4.78-19.33,4.78ZM488.17,662.29c6.56,0,11.82-2.16,15.77-6.47s5.93-10.01,5.93-17.1v-30.61c0-7.14-1.98-12.85-5.93-17.14-3.95-4.29-9.21-6.43-15.77-6.43s-11.76,2.14-15.74,6.43c-3.98,4.29-5.96,10-5.96,17.14v30.61c0,7.09,1.99,12.79,5.96,17.1,3.98,4.31,9.22,6.47,15.74,6.47Z"/>
        <path class="cls-1" d="M547.17,675.66v-104.55h14.66v104.55h-14.66ZM553.56,631.47v-13.94h35.64c4.26,0,7.69-1.48,10.28-4.46,2.59-2.97,3.88-6.9,3.88-11.79s-1.29-8.81-3.88-11.78c-2.59-2.97-6.01-4.46-10.28-4.46h-35.64v-13.94h35.07c6.08,0,11.4,1.26,15.95,3.77,4.55,2.52,8.08,6.03,10.6,10.53,2.51,4.5,3.77,9.8,3.77,15.88s-1.27,11.32-3.81,15.84c-2.54,4.53-6.07,8.05-10.6,10.56-4.53,2.52-9.83,3.77-15.92,3.77h-35.07ZM605.95,675.66l-23.93-47.43,14.59-3.31,26.73,50.73h-17.39Z"/>
        <path class="cls-1" d="M629.44,675.66l38.52-104.48h12.5l38.52,104.48h-15.81l-28.96-84.29-28.96,84.29h-15.81ZM647.19,652.74v-13.94h54.97v13.94h-54.97Z"/>
      </g>
    </g>
  </g>
</svg>